<svg width="88" height="16" viewBox="0 0 88 16" fill="none" xmlns="http://www.w3.org/2000/svg">
<path fill-rule="evenodd" clip-rule="evenodd" d="M2 0C0.895432 0 0 0.89543 0 2V14C0 15.1046 0.895432 16 2 16H14C15.1046 16 16 15.1046 16 14V2C16 0.89543 15.1046 0 14 0H2ZM9.34708 6.1459L8 2L6.65292 6.1459H2.29366L5.82037 8.70821L4.47329 12.8541L8 10.2918L11.5267 12.8541L10.1796 8.70821L13.7063 6.1459H9.34708ZM20 0C18.8954 0 18 0.89543 18 2V14C18 15.1046 18.8954 16 20 16H32C33.1046 16 34 15.1046 34 14V2C34 0.89543 33.1046 0 32 0H20ZM27.3471 6.1459L26 2L24.6529 6.1459H20.2937L23.8204 8.70821L22.4733 12.8541L26 10.2918L29.5267 12.8541L28.1796 8.70821L31.7063 6.1459H27.3471ZM36 2C36 0.89543 36.8954 0 38 0H50C51.1046 0 52 0.89543 52 2V14C52 15.1046 51.1046 16 50 16H38C36.8954 16 36 15.1046 36 14V2ZM44 2L45.3471 6.1459H49.7063L46.1796 8.70821L47.5267 12.8541L44 10.2918L40.4733 12.8541L41.8204 8.70821L38.2937 6.1459H42.6529L44 2ZM56 0C54.8954 0 54 0.89543 54 2V14C54 15.1046 54.8954 16 56 16H68C69.1046 16 70 15.1046 70 14V2C70 0.89543 69.1046 0 68 0H56ZM63.3471 6.1459L62 2L60.6529 6.1459H56.2937L59.8204 8.70821L58.4733 12.8541L62 10.2918L65.5267 12.8541L64.1796 8.70821L67.7063 6.1459H63.3471ZM72 2C72 0.89543 72.8954 0 74 0H86C87.1046 0 88 0.89543 88 2V14C88 15.1046 87.1046 16 86 16H74C72.8954 16 72 15.1046 72 14V2ZM80 2L81.3471 6.1459H85.7063L82.1796 8.70821L83.5267 12.8541L80 10.2918L76.4733 12.8541L77.8204 8.70821L74.2937 6.1459H78.6529L80 2Z" fill="#01CA88"/>
</svg>
